<?xml version="1.0" encoding="UTF-8"?>
<svg version="1.1" xmlns="http://www.w3.org/2000/svg" width="335" height="745">
<path d="M0 0 C4.59983633 1.06781915 4.59983633 1.06781915 6.5 3.8125 C7.40403946 6.52461838 7.62480694 8.07034315 7.6241985 10.85277623 C7.62644579 11.67943275 7.62869308 12.50608927 7.63100848 13.35779598 C7.62838146 14.26760053 7.62575445 15.17740509 7.62304783 16.11477947 C7.62420167 17.08399075 7.62535552 18.05320203 7.62654433 19.05178335 C7.62921143 22.33073763 7.62468803 25.60964375 7.62025452 28.88859558 C7.6206902 31.25057067 7.62156505 33.61254572 7.62284368 35.9745205 C7.62461927 41.1259684 7.62326846 46.27740589 7.61920547 51.42885208 C7.61318067 59.08891372 7.61286872 66.74896807 7.61374746 74.40903165 C7.61506271 87.29327598 7.61171487 100.1775152 7.60573006 113.06175804 C7.59981758 125.82291883 7.59596503 138.58407749 7.59487724 151.34523964 C7.5948085 152.13802378 7.59473976 152.93080792 7.59466894 153.74761582 C7.59433062 157.77359463 7.59402923 161.79957345 7.59374207 165.82555226 C7.5916404 194.35823096 7.58489954 222.89090686 7.57543945 251.42358398 C7.56625842 279.1465656 7.55917314 306.86954646 7.55493164 334.5925293 C7.55480011 335.4467347 7.55466859 336.3009401 7.55453308 337.18103052 C7.55321458 345.75913641 7.55193876 354.33724231 7.55069422 362.91534821 C7.54815785 380.39069381 7.5453366 397.86603936 7.54234314 415.34138489 C7.5421372 416.54667658 7.5421372 416.54667658 7.54192711 417.7763176 C7.53272295 471.45504624 7.51685658 525.13377329 7.5 578.8125 C8.15066437 578.79775131 8.80132874 578.78300262 9.47171021 578.76780701 C16.25248992 578.61521266 23.0334055 578.47049555 29.81445312 578.33032227 C32.34411882 578.27699961 34.87374321 578.22167816 37.40332031 578.16430664 C41.04222714 578.08212395 44.68122261 578.00716381 48.3203125 577.93359375 C49.44865509 577.90655869 50.57699768 577.87952362 51.73953247 577.85166931 C52.80017914 577.83157303 53.86082581 577.81147675 54.95361328 577.79077148 C55.88182892 577.77078598 56.81004456 577.75080048 57.76638794 577.73020935 C60.751768 577.82007904 63.56754384 578.26140601 66.5 578.8125 C67.70763348 585.26663002 66.86799466 589.90987277 63.32910156 595.34228516 C61.53094235 597.92325799 59.69707191 600.47394139 57.82519531 603.00195312 C55.9173196 605.60858655 54.14857323 608.300777 52.375 611 C49.79166667 614.875 47.20833333 618.75 44.625 622.625 C43.63886719 624.10613281 43.63886719 624.10613281 42.6328125 625.6171875 C41.11141116 627.89650305 39.58554107 630.17237197 38.0546875 632.4453125 C29.39426438 645.32431803 21.45843484 658.55444969 13.66455078 671.97241211 C9.38795615 679.3248786 5.02830367 686.6122159 0.5 693.8125 C-1.73167984 691.73604462 -3.25245468 689.74337607 -4.72021484 687.07739258 C-5.13622955 686.3348674 -5.55224426 685.59234222 -5.98086548 684.82731628 C-6.42803925 684.02449722 -6.87521301 683.22167816 -7.3359375 682.39453125 C-12.86919365 672.65990101 -18.97679826 663.4026795 -25.29943848 654.16720581 C-28.47160943 649.53255905 -31.62145281 644.88276323 -34.7734375 640.234375 C-35.41361816 639.29125961 -36.05379883 638.34814423 -36.71337891 637.37644958 C-43.48115783 627.39279272 -50.12820704 617.33087113 -56.75 607.25 C-57.29327942 606.42414398 -57.83655884 605.59828796 -58.39630127 604.74740601 C-59.91679613 602.4354839 -61.43546348 600.12237656 -62.953125 597.80859375 C-63.62754135 596.78206696 -63.62754135 596.78206696 -64.31558228 595.73480225 C-67.43068159 590.97375357 -68.84511368 588.56439472 -68.5 582.8125 C-67.9375 580.5 -67.9375 580.5 -66.5 578.8125 C-60.31779863 577.48898498 -54.17003444 577.77276972 -47.87890625 577.93359375 C-46.77900864 577.95720474 -45.67911102 577.98081573 -44.54588318 578.00514221 C-41.05127791 578.08138831 -37.55691641 578.16557986 -34.0625 578.25 C-31.68555859 578.30325981 -29.30860547 578.3559999 -26.93164062 578.40820312 C-21.12094469 578.5369503 -15.31042815 578.67221212 -9.5 578.8125 C-9.50113916 577.60406396 -9.50227832 576.39562791 -9.503452 575.1505726 C-9.55344438 521.90907851 -9.59972972 468.66758226 -9.62702942 415.42607117 C-9.62744359 414.62039158 -9.62785776 413.81471199 -9.62828448 412.98461787 C-9.63726259 395.47626823 -9.64557323 377.96791833 -9.65319599 360.45956804 C-9.65693809 351.87384283 -9.66082774 343.28811769 -9.66479492 334.70239258 C-9.6651872 333.84799635 -9.66557948 332.99360013 -9.66598364 332.11331311 C-9.67877439 304.4052172 -9.70131331 276.69713962 -9.72889166 248.98905481 C-9.75717368 220.52237961 -9.77565267 192.05571455 -9.78174497 163.58902553 C-9.78260947 159.57101503 -9.78358638 155.55300458 -9.78463173 151.53499413 C-9.784834 150.74416917 -9.78503627 149.95334421 -9.78524467 149.13855485 C-9.78879387 136.39337506 -9.80271896 123.64822658 -9.8204961 110.90305957 C-9.83813498 98.09899535 -9.84490968 85.29496226 -9.84050413 72.49088631 C-9.83821731 64.87783586 -9.8443508 57.26489908 -9.86239263 49.6518691 C-9.8749286 43.97580719 -9.87190476 38.29984045 -9.86269668 32.6237761 C-9.8614228 30.3208729 -9.86528295 28.01796028 -9.87464955 25.71507577 C-9.88660048 22.59681699 -9.88025384 19.47912428 -9.86914349 16.36087513 C-9.87702453 15.45632461 -9.88490557 14.55177408 -9.89302543 13.61981294 C-9.85451236 8.87185201 -9.63734558 5.63558251 -6.5 1.8125 C-3.5 -0.1875 -3.5 -0.1875 0 0 Z " fill="#AAAAAA" transform="translate(177.5,27.1875)"/>
<path d="M0 0 C0.99 0.33 1.98 0.66 3 1 C3 1.66 3 2.32 3 3 C3.66 3 4.32 3 5 3 C5.33 2.34 5.66 1.68 6 1 C6.66 1.33 7.32 1.66 8 2 C7.34 3.65 6.68 5.3 6 7 C5.01 7 4.02 7 3 7 C0 2.77777778 0 2.77777778 0 0 Z " fill="#B2B2B2" transform="translate(173,713)"/>
<path d="M0 0 C2.475 0.495 2.475 0.495 5 1 C4.01 2.98 3.02 4.96 2 7 C1.67 7 1.34 7 1 7 C0.67 4.69 0.34 2.38 0 0 Z " fill="#B3B3B3" transform="translate(233,624)"/>
<path d="" fill="#FFFFFF" transform="translate(0,0)"/>
<path d="" fill="#FFFFFF" transform="translate(0,0)"/>
<path d="" fill="#FFFFFF" transform="translate(0,0)"/>
<path d="" fill="#FFFFFF" transform="translate(0,0)"/>
<path d="" fill="#FFFFFF" transform="translate(0,0)"/>
<path d="" fill="#FFFFFF" transform="translate(0,0)"/>
<path d="" fill="#FFFFFF" transform="translate(0,0)"/>
<path d="" fill="#FFFFFF" transform="translate(0,0)"/>
<path d="" fill="#FFFFFF" transform="translate(0,0)"/>
<path d="" fill="#FFFFFF" transform="translate(0,0)"/>
<path d="" fill="#FFFFFF" transform="translate(0,0)"/>
<path d="" fill="#FFFFFF" transform="translate(0,0)"/>
<path d="" fill="#FFFFFF" transform="translate(0,0)"/>
<path d="" fill="#FFFFFF" transform="translate(0,0)"/>
<path d="" fill="#FFFFFF" transform="translate(0,0)"/>
<path d="" fill="#FFFFFF" transform="translate(0,0)"/>
<path d="" fill="#FFFFFF" transform="translate(0,0)"/>
<path d="" fill="#FFFFFF" transform="translate(0,0)"/>
<path d="" fill="#FFFFFF" transform="translate(0,0)"/>
<path d="" fill="#FFFFFF" transform="translate(0,0)"/>
<path d="" fill="#FFFFFF" transform="translate(0,0)"/>
<path d="" fill="#FFFFFF" transform="translate(0,0)"/>
<path d="" fill="#FFFFFF" transform="translate(0,0)"/>
<path d="" fill="#FFFFFF" transform="translate(0,0)"/>
<path d="" fill="#FFFFFF" transform="translate(0,0)"/>
<path d="" fill="#FFFFFF" transform="translate(0,0)"/>
<path d="" fill="#FFFFFF" transform="translate(0,0)"/>
<path d="" fill="#FFFFFF" transform="translate(0,0)"/>
<path d="" fill="#FFFFFF" transform="translate(0,0)"/>
<path d="" fill="#FFFFFF" transform="translate(0,0)"/>
<path d="" fill="#FFFFFF" transform="translate(0,0)"/>
<path d="" fill="#FFFFFF" transform="translate(0,0)"/>
<path d="" fill="#FFFFFF" transform="translate(0,0)"/>
<path d="" fill="#FFFFFF" transform="translate(0,0)"/>
<path d="" fill="#FFFFFF" transform="translate(0,0)"/>
<path d="" fill="#FFFFFF" transform="translate(0,0)"/>
<path d="" fill="#FFFFFF" transform="translate(0,0)"/>
<path d="" fill="#FFFFFF" transform="translate(0,0)"/>
<path d="" fill="#FFFFFF" transform="translate(0,0)"/>
<path d="" fill="#FFFFFF" transform="translate(0,0)"/>
<path d="" fill="#FFFFFF" transform="translate(0,0)"/>
<path d="" fill="#FFFFFF" transform="translate(0,0)"/>
<path d="" fill="#FFFFFF" transform="translate(0,0)"/>
<path d="" fill="#FFFFFF" transform="translate(0,0)"/>
<path d="" fill="#FFFFFF" transform="translate(0,0)"/>
<path d="" fill="#FFFFFF" transform="translate(0,0)"/>
<path d="" fill="#FFFFFF" transform="translate(0,0)"/>
<path d="" fill="#FFFFFF" transform="translate(0,0)"/>
<path d="" fill="#FFFFFF" transform="translate(0,0)"/>
<path d="" fill="#FFFFFF" transform="translate(0,0)"/>
<path d="" fill="#FFFFFF" transform="translate(0,0)"/>
<path d="" fill="#FFFFFF" transform="translate(0,0)"/>
<path d="" fill="#FFFFFF" transform="translate(0,0)"/>
<path d="" fill="#FFFFFF" transform="translate(0,0)"/>
<path d="" fill="#FFFFFF" transform="translate(0,0)"/>
<path d="" fill="#FFFFFF" transform="translate(0,0)"/>
<path d="" fill="#FFFFFF" transform="translate(0,0)"/>
<path d="" fill="#FFFFFF" transform="translate(0,0)"/>
<path d="" fill="#FFFFFF" transform="translate(0,0)"/>
<path d="" fill="#FFFFFF" transform="translate(0,0)"/>
<path d="" fill="#FFFFFF" transform="translate(0,0)"/>
<path d="" fill="#FFFFFF" transform="translate(0,0)"/>
<path d="" fill="#FFFFFF" transform="translate(0,0)"/>
<path d="" fill="#FFFFFF" transform="translate(0,0)"/>
<path d="" fill="#FFFFFF" transform="translate(0,0)"/>
<path d="" fill="#FFFFFF" transform="translate(0,0)"/>
<path d="" fill="#FFFFFF" transform="translate(0,0)"/>
<path d="" fill="#FFFFFF" transform="translate(0,0)"/>
<path d="" fill="#FFFFFF" transform="translate(0,0)"/>
<path d="" fill="#FFFFFF" transform="translate(0,0)"/>
<path d="" fill="#FFFFFF" transform="translate(0,0)"/>
<path d="" fill="#FFFFFF" transform="translate(0,0)"/>
<path d="" fill="#FFFFFF" transform="translate(0,0)"/>
<path d="" fill="#FFFFFF" transform="translate(0,0)"/>
<path d="" fill="#FFFFFF" transform="translate(0,0)"/>
<path d="" fill="#FFFFFF" transform="translate(0,0)"/>
<path d="" fill="#FFFFFF" transform="translate(0,0)"/>
<path d="" fill="#FFFFFF" transform="translate(0,0)"/>
<path d="" fill="#FFFFFF" transform="translate(0,0)"/>
<path d="" fill="#FFFFFF" transform="translate(0,0)"/>
<path d="" fill="#FFFFFF" transform="translate(0,0)"/>
<path d="" fill="#FFFFFF" transform="translate(0,0)"/>
<path d="" fill="#FFFFFF" transform="translate(0,0)"/>
<path d="" fill="#FFFFFF" transform="translate(0,0)"/>
<path d="" fill="#FFFFFF" transform="translate(0,0)"/>
<path d="" fill="#FFFFFF" transform="translate(0,0)"/>
<path d="" fill="#FFFFFF" transform="translate(0,0)"/>
<path d="" fill="#FFFFFF" transform="translate(0,0)"/>
</svg>
